<svg xmlns="http://www.w3.org/2000/svg" xmlns:xlink="http://www.w3.org/1999/xlink" viewBox="0 0 22 22"><g id="ss12147877126_1"><path d="M 0 0 L 22 0 L 22 22 L 0 22 Z" fill="transparent"></path><path d="M 11.043 10.104 C 10.587 4.448 5.852 0 0.079 0 C 0.079 5.747 4.485 10.464 10.104 10.957 C 4.448 11.413 0 16.148 0 21.921 C 5.747 21.921 10.464 17.515 10.957 11.896 C 11.413 17.552 16.148 22 21.921 22 C 21.921 16.253 17.515 11.536 11.896 11.043 C 17.552 10.587 22 5.852 22 0.079 C 16.253 0.079 11.536 4.485 11.043 10.104 Z M 11 11 L 11 11 L 11 11 L 11 11 L 11 11 Z" fill="rgb(0, 0, 0)"></path></g></svg>