<svg xmlns="http://www.w3.org/2000/svg" xmlns:xlink="http://www.w3.org/1999/xlink" viewBox="0 0 26 26"><g id="ss10534288704_1"><path d="M 0 0 L 26 0 L 26 26 L 0 26 Z" fill="transparent"></path><path d="M 13 26 C 12.142 26 11.352 25.786 10.63 25.357 C 9.931 24.951 9.366 24.398 8.938 23.698 C 8.531 22.976 8.328 22.186 8.328 21.328 C 8.328 20.245 8.576 19.342 9.073 18.62 C 9.57 17.898 10.337 17.051 11.375 16.081 C 12.142 15.381 12.526 14.715 12.526 14.083 L 12.526 13.474 L 11.917 13.474 C 11.217 13.474 10.258 14.174 9.039 15.573 C 7.843 16.972 6.387 17.672 4.672 17.672 C 3.814 17.672 3.024 17.469 2.302 17.063 C 1.602 16.634 1.038 16.069 0.609 15.37 C 0.203 14.648 0 13.858 0 13 C 0 12.142 0.203 11.364 0.609 10.664 C 1.038 9.942 1.602 9.378 2.302 8.971 C 3.024 8.542 3.814 8.328 4.672 8.328 C 6.365 8.328 7.809 9.017 9.005 10.393 C 10.201 11.77 11.172 12.458 11.917 12.458 L 12.526 12.458 L 12.526 11.917 C 12.526 11.285 12.142 10.619 11.375 9.919 L 10.596 9.208 C 10.032 8.689 9.513 8.069 9.039 7.346 C 8.565 6.602 8.328 5.71 8.328 4.672 C 8.328 3.814 8.531 3.036 8.938 2.336 C 9.366 1.614 9.931 1.049 10.63 0.643 C 11.353 0.214 12.143 0 13 0 C 13.858 0 14.636 0.214 15.336 0.643 C 16.058 1.072 16.622 1.636 17.029 2.336 C 17.457 3.036 17.672 3.814 17.672 4.672 C 17.672 6.365 16.983 7.809 15.607 9.005 C 14.23 10.201 13.542 11.172 13.542 11.917 L 13.542 12.458 L 14.083 12.458 C 14.851 12.458 15.821 11.77 16.995 10.393 C 18.146 9.017 19.59 8.328 21.328 8.328 C 22.186 8.328 22.964 8.543 23.664 8.971 C 24.386 9.378 24.951 9.931 25.357 10.63 C 25.786 11.33 26 12.12 26 13 C 26 13.858 25.786 14.648 25.357 15.37 C 24.951 16.069 24.386 16.634 23.664 17.063 C 22.964 17.469 22.186 17.672 21.328 17.672 C 20.267 17.672 19.353 17.412 18.586 16.893 C 17.841 16.374 17.006 15.618 16.081 14.625 C 15.381 13.858 14.715 13.474 14.083 13.474 L 13.542 13.474 L 13.542 14.083 C 13.542 14.918 14.23 15.889 15.607 16.995 C 16.983 18.101 17.672 19.545 17.672 21.328 C 17.672 22.186 17.457 22.976 17.029 23.698 C 16.622 24.398 16.069 24.951 15.37 25.357 C 14.67 25.786 13.88 26 13 26 Z" fill="rgb(NaN,NaN,NaN)"></path></g></svg>